<?xml version="1.0" encoding="UTF-8"?>
<svg width="209px" height="63px" viewBox="0 0 209 63" version="1.1" xmlns="http://www.w3.org/2000/svg" xmlns:xlink="http://www.w3.org/1999/xlink">
    <!-- Generator: Sketch 61.2 (89653) - https://sketch.com -->
    <title>Group Copy</title>
    <desc>Created with Sketch.</desc>
    <g id="Page-1" stroke="none" stroke-width="1" fill="none" fill-rule="evenodd">
        <g id="Group-Copy" transform="translate(1.000000, 0.000000)">
            <path d="M50.3895951,29.5640736 C54.9630429,29.5640736 57.9847853,28.2165399 60.5573497,25.9706503 C61.1290307,25.480638 61.6190429,24.7047853 61.6190429,23.7247607 C61.6190429,22.1322209 60.2715092,20.8255215 58.6789693,20.8255215 C57.9439509,20.8255215 57.2906012,21.111362 56.800589,21.5197055 C55.0038773,22.948908 53.248,23.7655951 50.5937669,23.7655951 C45.6936442,23.7655951 42.3043926,19.6821595 42.3043926,14.7820368 L42.3043926,14.7003681 C42.3043926,9.8002454 45.7753129,5.79847853 50.5937669,5.79847853 C52.8396564,5.79847853 54.6772025,6.53349693 56.4330798,7.84019632 C56.8822577,8.12603681 57.4539387,8.45271166 58.3114601,8.45271166 C60.0265031,8.45271166 61.4148712,7.10517791 61.4148712,5.39013497 C61.4148712,4.28760736 60.8431902,3.38925153 60.1898405,2.89923926 C57.8214479,1.14336196 54.9222086,0 50.6346012,0 C41.8552147,0 35.7300613,6.656 35.7300613,14.7820368 L35.7300613,14.8637055 C35.7300613,23.071411 41.9777178,29.5640736 50.3895951,29.5640736 Z M77.2177669,29.5640736 C84.0371043,29.5640736 89.1005644,24.4597791 89.1005644,18.1712883 L89.1005644,18.0896196 C89.1005644,11.8011288 84.0779387,6.77850307 77.2994356,6.77850307 C70.4800982,6.77850307 65.416638,11.8827975 65.416638,18.1712883 L65.416638,18.2529571 C65.416638,24.5414479 70.4392638,29.5640736 77.2177669,29.5640736 Z M77.2994356,24.214773 C73.8693497,24.214773 71.5417914,21.3972025 71.5417914,18.1712883 L71.5417914,18.0896196 C71.5417914,14.8637055 73.6651779,12.1278037 77.2177669,12.1278037 C80.6478528,12.1278037 82.975411,14.9453742 82.975411,18.1712883 L82.975411,18.2529571 C82.975411,21.4788712 80.8520245,24.214773 77.2994356,24.214773 Z M103.923436,29.5640736 C107.516859,29.5640736 109.844417,28.4207117 111.681963,26.7465031 C112.21281,26.2564908 112.580319,25.6031411 112.580319,24.786454 C112.580319,23.3164172 111.436957,22.1322209 109.96692,22.1322209 C109.231902,22.1322209 108.619387,22.4588957 108.292712,22.7039018 C107.108515,23.643092 105.84265,24.214773 104.209276,24.214773 C100.820025,24.214773 98.6558037,21.5197055 98.6558037,18.1712883 L98.6558037,18.0896196 C98.6558037,14.8637055 100.860859,12.1278037 103.96427,12.1278037 C105.597644,12.1278037 106.741006,12.6586503 107.843534,13.5161718 C108.211043,13.8020123 108.823558,14.1286871 109.640245,14.1286871 C111.191951,14.1286871 112.457816,12.9036564 112.457816,11.3519509 C112.457816,10.2902577 111.886135,9.55523926 111.477791,9.22856442 C109.640245,7.6768589 107.312687,6.77850307 104.005104,6.77850307 C97.3082699,6.77850307 92.5306503,11.9236319 92.5306503,18.1712883 L92.5306503,18.2529571 C92.5306503,24.5006135 97.3491043,29.5640736 103.923436,29.5640736 Z M127.648196,29.5640736 C134.467534,29.5640736 139.530994,24.4597791 139.530994,18.1712883 L139.530994,18.0896196 C139.530994,11.8011288 134.508368,6.77850307 127.729865,6.77850307 C120.910528,6.77850307 115.847067,11.8827975 115.847067,18.1712883 L115.847067,18.2529571 C115.847067,24.5414479 120.869693,29.5640736 127.648196,29.5640736 Z M127.729865,24.214773 C124.299779,24.214773 121.972221,21.3972025 121.972221,18.1712883 L121.972221,18.0896196 C121.972221,14.8637055 124.095607,12.1278037 127.648196,12.1278037 C131.078282,12.1278037 133.40584,14.9453742 133.40584,18.1712883 L133.40584,18.2529571 C133.40584,21.4788712 131.282454,24.214773 127.729865,24.214773 Z M160.969031,29.3190675 C162.684074,29.3190675 164.072442,27.9306994 164.072442,26.2156564 L164.072442,14.9045399 C164.072442,9.88191411 161.33654,6.77850307 156.640589,6.77850307 C153.496344,6.77850307 151.658798,8.45271166 150.229595,10.2902577 L150.229595,10.0452515 C150.229595,8.33020859 148.841227,6.94184049 147.126184,6.94184049 C145.411141,6.94184049 144.022773,8.33020859 144.022773,10.0452515 L144.022773,26.2156564 C144.022773,27.9306994 145.411141,29.3190675 147.126184,29.3190675 C148.841227,29.3190675 150.229595,27.9306994 150.229595,26.2156564 L150.229595,16.864589 C150.229595,13.9245153 151.740466,12.4136442 154.108859,12.4136442 C156.477252,12.4136442 157.86562,13.9245153 157.86562,16.864589 L157.86562,26.2156564 C157.86562,27.9306994 159.253988,29.3190675 160.969031,29.3190675 Z M176.731092,29.4824049 C179.875337,29.4824049 181.712883,27.8081963 183.142086,25.9706503 L183.142086,26.2156564 C183.142086,27.9306994 184.530454,29.3190675 186.245497,29.3190675 C187.96054,29.3190675 189.348908,27.9306994 189.348908,26.2156564 L189.348908,10.0452515 C189.348908,8.33020859 187.96054,6.94184049 186.245497,6.94184049 C184.530454,6.94184049 183.142086,8.33020859 183.142086,10.0452515 L183.142086,19.396319 C183.142086,22.3363926 181.631215,23.8472638 179.262822,23.8472638 C176.894429,23.8472638 175.506061,22.3363926 175.506061,19.396319 L175.506061,10.0452515 C175.506061,8.33020859 174.117693,6.94184049 172.40265,6.94184049 C170.687607,6.94184049 169.299239,8.33020859 169.299239,10.0452515 L169.299239,21.3563681 C169.299239,26.3789939 172.035141,29.4824049 176.731092,29.4824049 Z M202.293399,29.4415706 C203.640933,29.4415706 204.702626,29.2782331 205.845988,28.8290552 C206.703509,28.5023804 207.438528,27.6040245 207.438528,26.5014969 C207.438528,25.0722945 206.254331,23.9289325 204.865963,23.9289325 C204.74346,23.9289325 204.335117,23.9697669 204.130945,23.9697669 C202.742577,23.9697669 202.130061,23.2755828 202.130061,21.8463804 L202.130061,12.4953129 L204.865963,12.4953129 C206.336,12.4953129 207.520196,11.3111166 207.520196,9.84107975 C207.520196,8.37104294 206.336,7.18684663 204.865963,7.18684663 L202.130061,7.18684663 L202.130061,4.45094479 C202.130061,2.73590184 200.741693,1.34753374 199.02665,1.34753374 C197.311607,1.34753374 195.923239,2.73590184 195.923239,4.45094479 L195.923239,7.18684663 L195.719067,7.18684663 C194.249031,7.18684663 193.064834,8.37104294 193.064834,9.84107975 C193.064834,11.3111166 194.249031,12.4953129 195.719067,12.4953129 L195.923239,12.4953129 L195.923239,22.8672393 C195.923239,27.9306994 198.495804,29.4415706 202.293399,29.4415706 Z" id="Coconut-Copy" fill="#FFFFFF" fill-rule="nonzero"></path>
            <path d="M63.5178405,61.4659141 C67.8054479,61.4659141 71.1946994,60.0367117 73.5222577,58.6075092 C75.0331288,57.7091534 75.7273129,56.4432883 75.7273129,54.6057423 L75.7273129,47.6639018 C75.7273129,45.9080245 74.3389448,44.5196564 72.5830675,44.5196564 L65.3962209,44.5196564 C63.8853497,44.5196564 62.660319,45.7446871 62.660319,47.2555583 C62.660319,48.7664294 63.8853497,49.9506258 65.3962209,49.9506258 L69.6429939,49.9506258 L69.6429939,54.0340613 C68.050454,55.1774233 66.0087362,55.7491043 63.7220123,55.7491043 C58.6585521,55.7491043 55.0651288,51.9106748 55.0651288,46.6838773 L55.0651288,46.6022086 C55.0651288,41.7429202 58.6993865,37.700319 63.2728344,37.700319 C65.9679018,37.700319 67.8054479,38.4353374 69.5204908,39.6603681 C69.9696687,39.9870429 70.5413497,40.3137178 71.4397055,40.3137178 C73.1547485,40.3137178 74.5431166,38.9253497 74.5431166,37.2103067 C74.5431166,35.9852761 73.8489325,35.1277546 73.2364172,34.6785767 C70.6638528,32.881865 67.8054479,31.9018405 63.4770061,31.9018405 C54.8201227,31.9018405 48.4907975,38.5578405 48.4907975,46.6838773 L48.4907975,46.765546 C48.4907975,55.2182577 54.6159509,61.4659141 63.5178405,61.4659141 Z M84.2208589,61.220908 C85.9359018,61.220908 87.3242699,59.8325399 87.3242699,58.1174969 L87.3242699,52.3190184 C87.3242699,47.908908 89.0801472,45.499681 92.2243926,44.7646626 C93.4902577,44.4788221 94.5519509,43.4987975 94.5519509,41.8654233 C94.5519509,40.109546 93.4494233,38.843681 91.5302086,38.843681 C89.6926626,38.843681 88.2226258,40.8037301 87.3242699,42.9271166 L87.3242699,41.947092 C87.3242699,40.2320491 85.9359018,38.843681 84.2208589,38.843681 C82.505816,38.843681 81.1174479,40.2320491 81.1174479,41.947092 L81.1174479,58.1174969 C81.1174479,59.8325399 82.505816,61.220908 84.2208589,61.220908 Z M108.925644,61.4659141 C115.744982,61.4659141 120.808442,56.3616196 120.808442,50.0731288 L120.808442,49.9914601 C120.808442,43.7029693 115.785816,38.6803436 109.007313,38.6803436 C102.187975,38.6803436 97.1245153,43.784638 97.1245153,50.0731288 L97.1245153,50.1547975 C97.1245153,56.4432883 102.147141,61.4659141 108.925644,61.4659141 Z M109.007313,56.1166135 C105.577227,56.1166135 103.249669,53.2990429 103.249669,50.0731288 L103.249669,49.9914601 C103.249669,46.765546 105.373055,44.0296442 108.925644,44.0296442 C112.35573,44.0296442 114.683288,46.8472147 114.683288,50.0731288 L114.683288,50.1547975 C114.683288,53.3807117 112.559902,56.1166135 109.007313,56.1166135 Z M134.692123,61.4250798 C136.366331,61.4250798 137.509693,60.3225521 138.203877,58.7300123 L144.900712,43.2537914 C145.023215,42.9679509 145.227387,42.3146012 145.227387,41.7837546 C145.227387,40.109546 143.879853,38.843681 142.246479,38.843681 C140.613104,38.843681 139.755583,39.9053742 139.347239,40.9670675 L134.56962,53.7482209 L129.873669,41.0487362 C129.424491,39.7828712 128.526135,38.843681 126.851926,38.843681 C125.177718,38.843681 123.830184,40.2728834 123.830184,41.7429202 C123.830184,42.3146012 123.993521,42.8454479 124.156859,43.2537914 L130.853693,58.7300123 C131.547877,60.3633865 132.691239,61.4250798 134.365448,61.4250798 L134.692123,61.4250798 Z M159.682748,61.4659141 C162.867828,61.4659141 165.358724,60.4450552 167.277939,58.811681 C167.727117,58.4033374 168.094626,57.7908221 168.094626,56.974135 C168.094626,55.5857669 167.073767,54.5240736 165.685399,54.5240736 C165.032049,54.5240736 164.623706,54.687411 164.174528,55.0140859 C162.908663,55.9532761 161.47946,56.4841227 159.764417,56.4841227 C156.987681,56.4841227 155.027632,55.0140859 154.415117,52.1965153 L166.706258,52.1965153 C168.339632,52.1965153 169.605497,51.012319 169.605497,49.2156074 C169.605497,44.6829939 166.379583,38.6803436 159.070233,38.6803436 C152.700074,38.6803436 148.249129,43.8254724 148.249129,50.0731288 L148.249129,50.1547975 C148.249129,56.8516319 153.108417,61.4659141 159.682748,61.4659141 Z M163.684515,48.3172515 L154.333448,48.3172515 C154.82346,45.499681 156.497669,43.662135 159.070233,43.662135 C161.683632,43.662135 163.317006,45.5405153 163.684515,48.3172515 Z M182.019141,61.3842454 C186.755926,61.3842454 190.390184,59.1791902 190.390184,54.3199018 L190.390184,54.2382331 C190.390184,50.2364663 186.837595,48.7664294 183.775018,47.7455706 C181.406626,46.9288834 179.324074,46.3572025 179.324074,45.1321718 L179.324074,45.0505031 C179.324074,44.1929816 180.099926,43.5396319 181.610798,43.5396319 C182.917497,43.5396319 184.591706,44.0704785 186.347583,44.928 C186.755926,45.1321718 187.041767,45.2138405 187.490945,45.2138405 C188.879313,45.2138405 189.98184,44.1521472 189.98184,42.7637791 C189.98184,41.7020859 189.41016,40.8853988 188.511804,40.4362209 C186.388417,39.3745276 184.020025,38.7620123 181.733301,38.7620123 C177.32319,38.7620123 173.729767,41.252908 173.729767,45.7038528 L173.729767,45.7855215 C173.729767,50.0322945 177.200687,51.4614969 180.263264,52.3598528 C182.672491,53.0948712 184.795877,53.5440491 184.795877,54.8915828 L184.795877,54.9732515 C184.795877,55.9532761 183.97919,56.6066258 182.182479,56.6066258 C180.426601,56.6066258 178.344049,55.9532761 176.261497,54.6465767 C175.934822,54.4424049 175.485644,54.3199018 175.036466,54.3199018 C173.648098,54.3199018 172.586405,55.3815951 172.586405,56.7699632 C172.586405,57.7499877 173.117252,58.4850061 173.770601,58.8933497 C176.424834,60.6083926 179.324074,61.3842454 182.019141,61.3842454 Z" id="Groves-Copy" fill="#FFFFFF" fill-rule="nonzero"></path>
            <g id="Group-7" transform="translate(0.000000, 10.208589)">
                <g id="Group-5">
                    <path d="M28.8457038,21.5713686 C28.2663425,8.97425606 15.3431753,1.29754028 3.34331288,0.119736254 C8.82184278,5.35974772 4.06673929,12.6665214 7.06658563,19.5868952 C11.050559,16.7976607 16.2786446,17.6074308 20.3716209,19.7085396 C18.4947193,14.3192156 14.6753237,8.88719684 12.1525142,7.10522562 C14.2197535,7.76043575 21.1389347,13.813318 22.97982,21.298742 C24.8839126,22.6520956 26.5859802,24.3114684 28.0068345,26.1301714 C28.7987157,25.3879021 29.6449791,24.7057393 30.5413313,24.0929855 C31.4219414,21.5658827 34.1856545,17.2227005 38.9235847,15.248722 C36.786698,16.116452 33.2881096,20.4205172 31.966956,23.2078436 C34.4733077,21.8008233 37.4180563,20.9101955 40.3155782,21.2123984 C42.1183006,19.5873723 41.930348,12.8270443 46.070551,9.92236684 C38.3747537,11.1357101 31.0593934,14.8761562 28.8457038,21.5713686" id="Fill-1" fill="#78B242"></path>
                    <path d="M3.41963878,46.4183109 C-3.38242991,38.8808899 1.25436844,21.0857451 10.5477622,19.0747962 C16.6824563,17.7469641 22.8596067,21.5196101 26.6780483,26.0571848 C31.0498526,31.2449607 34.7065788,41.3774623 28.4299662,46.574779 C21.2171687,52.4475798 10.1351253,53.860086 3.41963878,46.4183109" id="Fill-3" fill="#452618"></path>
                    <path d="M3.41963878,46.4183109 C-3.38242991,38.8808899 1.25436844,21.0857451 10.5477622,19.0747962 C16.6824563,17.7469641 22.8596067,21.5196101 26.6780483,26.0571848 C31.0498526,31.2449607 34.7065788,41.3774623 28.4299662,46.574779 C21.2171687,52.4475798 10.1351253,53.860086 3.41963878,46.4183109 Z" id="Stroke-4" stroke="#452618" stroke-width="1.5"></path>
                </g>
                <path d="M30.9117505,37.5029689 C30.2691818,29.9297701 23.7874434,22.1013566 16.4673127,20.0586847 C9.258093,18.0463047 3.97777192,22.4204942 4.61079984,29.8777731 C5.25312998,37.4504948 11.7346299,45.2789083 19.0549991,47.3220572 C26.2646958,49.3344372 31.5445399,44.9597707 30.9117505,37.5029689" id="Fill-6" fill="#FFFFFF"></path>
                <path d="M23.4301428,28.641055 C19.5019827,23.8974004 13.8469491,22.0977788 10.7989221,24.6215423 C7.75113354,27.1453059 8.46478069,33.0369497 12.3929408,37.7808428 C16.3211009,42.5242589 21.9761344,44.3238805 25.0241615,41.800117 C28.07195,39.2763534 27.3583028,33.3847096 23.4301428,28.641055" id="Fill-7" fill="#EEEEEE"></path>
                <g id="Group-12" transform="translate(9.302219, 21.943696)">
                    <path d="M1.49670317,2.67784645 C0.858427842,3.2064033 0.385684307,3.8830801 0.0722710854,4.66565908 C3.90836305,1.34142767 10.1518216,5.58967949 12.7101703,8.67944728 C15.8156803,12.4296726 16.911434,16.8968844 15.7286211,19.8506966 C18.7685385,17.3235938 18.0529832,11.4374359 14.1279239,6.6973591 C10.1997638,1.95370449 4.54473023,0.154082908 1.49670317,2.67784645 Z" id="Fill-8" fill="#CCCCCC"></path>
                    <path d="M17.8740944,26.2840158 C22.262118,29.747065 32.0843071,32.1549085 38.5326529,25.0093733 C44.2327665,18.6924511 41.1880787,6.92108939 35.2659045,2.01810447 C29.6953065,-2.59531908 21.4263494,2.17075626 17.5408841,6.86289089 C13.6539877,11.5566951 10.513654,20.5662519 16.0861602,25.1806296 C16.6352296,25.6354842 17.234865,26.002087 17.8740944,26.2840158" id="Fill-10" fill="#452618"></path>
                    <path d="M17.8740944,26.2840158 C22.262118,29.747065 32.0843071,32.1549085 38.5326529,25.0093733 C44.2327665,18.6924511 41.1880787,6.92108939 35.2659045,2.01810447 C29.6953065,-2.59531908 21.4263494,2.17075626 17.5408841,6.86289089 C13.6539877,11.5566951 10.513654,20.5662519 16.0861602,25.1806296 C16.6352296,25.6354842 17.234865,26.002087 17.8740944,26.2840158 Z" id="Stroke-11" stroke="#452618" stroke-width="1.5"></path>
                </g>
                <path d="M44.0658036,24.5693068 C42.0085821,22.8658082 39.1337194,22.5294972 36.1491382,23.3624035 C33.1166149,24.2089055 29.9774738,26.2580173 27.450848,29.3091451 C24.9246993,32.3600344 23.4966894,35.8264228 23.2305028,38.9641328 C22.9686096,42.0524695 23.8349085,44.8140359 25.891176,46.516819 C27.9483975,48.2203176 30.8234987,48.5566286 33.8078413,47.7237223 C36.8403647,46.8774589 39.9795058,44.82787 42.5061315,41.7765036 L42.5094708,41.7726873 C45.0334729,38.7232292 46.4602901,35.2582719 46.7262382,32.1217545 C46.9883699,29.0338948 46.1218325,26.2723284 44.0658036,24.5693068" id="Fill-13" fill="#FFFFFF"></path>
                <path d="M41.354326,27.4134006 C38.6223359,25.1510533 33.5526266,26.7641534 30.0313789,31.0166986 C26.5101313,35.2690052 25.8704249,40.5505189 28.6026535,42.8128662 C31.3348822,45.0754521 36.404353,43.4621134 39.9256006,39.2098068 C43.4468482,34.9572616 44.0865547,29.6759865 41.354326,27.4134006" id="Fill-14" fill="#EEEEEE"></path>
                <path d="M41.2195631,27.4134006 C38.4873344,25.1510533 33.4176251,26.7641534 29.896616,31.0166986 C26.3779921,35.266143 25.7363775,40.5426478 28.4616891,42.8078573 C27.4012362,40.1598257 28.3836936,36.1553397 31.1674422,32.7934224 C34.6889284,28.5411158 39.7581607,26.9277771 42.4906278,29.1903629 L42.4965908,29.1953718 C42.2156161,28.4941276 41.7920073,27.8870982 41.2195631,27.4134006" id="Fill-15" fill="#CCCCCC"></path>
            </g>
        </g>
    </g>
</svg>